<?xml version="1.0" encoding="UTF-8" standalone="no"?>
<svg
   xmlns:dc="http://purl.org/dc/elements/1.1/"
   xmlns:cc="http://creativecommons.org/ns#"
   xmlns:rdf="http://www.w3.org/1999/02/22-rdf-syntax-ns#"
   xmlns:svg="http://www.w3.org/2000/svg"
   xmlns="http://www.w3.org/2000/svg"
   id="svg23261"
   version="1.1"
   viewBox="0 0 79.375 78.446693"
   height="78.446693mm"
   width="79.375mm">
  <defs
     id="defs23255" />
  <metadata
     id="metadata23258">
    <rdf:RDF>
      <cc:Work
         rdf:about="">
        <dc:format>image/svg+xml</dc:format>
        <dc:type
           rdf:resource="http://purl.org/dc/dcmitype/StillImage" />
        <dc:title></dc:title>
      </cc:Work>
    </rdf:RDF>
  </metadata>
  <g
     transform="translate(163.66369,61.235207)"
     id="layer1">
    <g
       transform="matrix(8.7921536,0,0,8.7921536,279.24378,-2130.258)"
       id="g23220">
      <g
         id="g13565"
         transform="matrix(0.35277777,0,0,-0.35277777,-50.059927,235.71507)">
        <path
           d="m 0,0 v -2.624 c 0,-0.112 0.077,-0.242 0.236,-0.241 0.503,0.004 0.613,0.567 0.639,1.538 0.011,0.529 -0.083,0.936 -0.209,1.216 C 0.572,0.1 0.356,0.217 0.213,0.215 0.077,0.212 -0.003,0.1 0,0 m -0.894,-3.7 0.034,4.712 c 0.209,0.006 0.464,0.022 0.68,0.022 0.101,0 0.405,0.003 0.55,-0.009 C 0.998,0.963 1.397,0.612 1.662,-0.055 1.788,-0.387 1.834,-0.784 1.847,-1.197 1.85,-1.302 1.852,-1.374 1.852,-1.414 1.852,-2.201 1.557,-2.951 1.13,-3.34 0.963,-3.491 0.771,-3.605 0.553,-3.675 c -0.234,-0.073 -0.561,-0.04 -0.925,-0.04 -0.132,0 -0.369,0.006 -0.522,0.015"
           style="fill:#ef651a;fill-opacity:1;fill-rule:nonzero;stroke:none"
           id="path13567" />
      </g>
      <g
         id="g13569"
         transform="matrix(0.35277777,0,0,-0.35277777,-49.31098,235.38487)">
        <path
           d="m 0,0 c 0.788,-0.009 1.472,-0.009 2.078,0 v -0.841 c -0.17,0.008 -0.367,0.02 -0.54,0.027 -0.203,0.009 -0.421,0 -0.498,-0.038 C 0.905,-0.92 0.854,-1.042 0.843,-1.249 0.839,-1.457 0.88,-1.664 0.97,-1.742 1.04,-1.8 1.229,-1.838 1.38,-1.839 1.536,-1.841 1.678,-1.841 1.878,-1.838 V -2.665 H 1.472 C 1.316,-2.659 1.077,-2.656 0.987,-2.749 0.877,-2.857 0.843,-2.944 0.848,-3.178 c 0.006,-0.241 0.029,-0.463 0.154,-0.54 0.063,-0.038 0.296,-0.062 0.476,-0.061 0.18,10e-4 0.352,-0.009 0.618,0 V -4.551 C 1.191,-4.557 0.528,-4.544 0,-4.551"
           style="fill:#ef651a;fill-opacity:1;fill-rule:nonzero;stroke:none"
           id="path13571" />
      </g>
      <g
         id="g13573"
         transform="matrix(0.35277777,0,0,-0.35277777,-48.06638,235.59371)">
        <path
           d="m 0,0 c -0.209,-0.006 -0.29,-0.168 -0.29,-0.388 0,-0.136 0.043,-0.218 0.158,-0.366 0.123,-0.159 0.259,-0.268 0.395,-0.395 0.195,-0.186 0.38,-0.372 0.529,-0.546 0.188,-0.22 0.268,-0.37 0.335,-0.626 0.048,-0.181 0.069,-0.319 0.069,-0.512 0,-0.753 -0.48,-1.273 -1.244,-1.258 -0.479,0.011 -0.856,0.167 -1.039,0.501 -0.171,0.313 -0.15,0.628 -0.15,0.937 l 0.009,0.201 h 0.875 c -0.069,-0.555 0.092,-0.892 0.323,-0.879 0.225,0.015 0.316,0.149 0.302,0.467 -0.005,0.157 -0.095,0.435 -0.314,0.634 -0.206,0.186 -0.397,0.32 -0.609,0.504 -0.355,0.332 -0.573,0.757 -0.582,1.24 l 0.009,0.162 c 0.036,0.32 0.119,0.451 0.207,0.596 0.198,0.335 0.615,0.499 1.119,0.486 0.454,-0.012 0.796,-0.24 0.95,-0.57 0.111,-0.227 0.126,-0.335 0.126,-0.683 0,-0.126 -0.002,-0.174 -0.003,-0.31 H 0.332 C 0.345,-0.49 0.346,-0.308 0.272,-0.15 0.21,-0.024 0.093,0.003 0,0"
           style="fill:#ef651a;fill-opacity:1;fill-rule:nonzero;stroke:none"
           id="path13575" />
      </g>
      <g
         id="g13577"
         transform="matrix(0.35277777,0,0,-0.35277777,-47.14316,235.63816)">
        <path
           d="m 0,0 c -0.135,0.018 -0.211,-0.094 -0.211,-0.172 v -0.667 c 0.003,-0.462 0.003,-0.713 0.003,-0.753 0,-0.058 0.032,-0.176 0.173,-0.171 0.095,10e-4 0.267,0.05 0.342,0.261 0.107,0.295 0.098,0.517 0.092,0.777 -0.006,0.343 -0.131,0.54 -0.132,0.542 C 0.177,-0.07 0.094,-0.017 0,0 m -0.194,-2.604 -0.009,-0.002 c 0,0 -0.005,-0.513 -0.012,-1.233 h -0.908 l -0.02,4.553 C -0.875,0.751 -0.476,0.771 -0.26,0.762 0.117,0.747 0.449,0.712 0.752,0.504 0.957,0.365 1.132,0.189 1.23,-0.062 1.306,-0.254 1.348,-0.469 1.348,-0.678 1.348,-1.062 1.256,-1.535 1.097,-1.837 0.878,-2.252 0.365,-2.617 -0.194,-2.604"
           style="fill:#ef651a;fill-opacity:1;fill-rule:nonzero;stroke:none"
           id="path13579" />
      </g>
      <g
         id="g13581"
         transform="matrix(0.35277777,0,0,-0.35277777,-46.286616,235.38592)">
        <path
           d="m 0,0 v -4.554 h -0.897 c 0.008,0.638 0.008,2.089 0,4.554"
           style="fill:#ef651a;fill-opacity:1;fill-rule:nonzero;stroke:none"
           id="path13583" />
      </g>
      <g
         id="g13585"
         transform="matrix(0.35277777,0,0,-0.35277777,-45.559188,235.95107)">
        <path
           d="m 0,0 c 0,0.216 -0.012,0.303 -0.031,0.424 -0.062,0.381 -0.236,0.474 -0.363,0.471 -0.292,-0.003 -0.403,-0.661 -0.403,-1.51 0,-1.215 0.168,-1.689 0.45,-1.701 C -0.151,-2.324 0,-2.07 0,-1.636 v 0.227 L 0.936,-1.413 C 0.944,-1.562 0.93,-1.731 0.912,-1.919 0.875,-2.224 0.78,-2.451 0.607,-2.673 0.361,-2.977 0.003,-3.154 -0.401,-3.148 c -0.405,0.011 -0.85,0.254 -1.061,0.612 -0.242,0.407 -0.325,1.082 -0.322,1.861 0.002,0.793 0.111,1.392 0.359,1.796 0.232,0.371 0.574,0.604 0.996,0.62 C -0.07,1.753 0.288,1.649 0.482,1.43 0.626,1.268 0.816,0.993 0.866,0.723 0.924,0.424 0.935,0.343 0.949,0"
           style="fill:#ef651a;fill-opacity:1;fill-rule:nonzero;stroke:none"
           id="path13587" />
      </g>
      <g
         id="g13589"
         transform="matrix(0.35277777,0,0,-0.35277777,-44.784135,236.4499)">
        <path
           d="M 0,0 H 0.558 C 0.494,0.46 0.423,1.08 0.271,1.909 0.197,1.48 0.111,0.859 0,0 M 0.82,-1.538 C 0.786,-1.316 0.756,-1.184 0.644,-0.67 H -0.107 C -0.151,-1.052 -0.181,-1.163 -0.23,-1.538 h -0.984 l 0.936,4.553 h 1.21 C 1.446,0.586 1.757,-0.967 1.888,-1.538"
           style="fill:#ef651a;fill-opacity:1;fill-rule:nonzero;stroke:none"
           id="path13591" />
      </g>
      <g
         id="g13593"
         transform="matrix(0.35277777,0,0,-0.35277777,-43.712749,236.66651)">
        <path
           d="M 0,0 C -0.001,-0.15 0.103,-0.238 0.235,-0.245 0.349,-0.248 0.475,-0.226 0.58,-0.121 0.702,0 0.765,0.18 0.768,0.368 0.77,0.57 0.722,0.731 0.624,0.853 0.527,0.973 0.392,1.033 0.24,1.038 0.115,1.043 0.019,0.957 0.015,0.86 -0.002,0.455 0.001,0.277 0,0 M 0.006,1.98 C 0.01,1.876 0.077,1.771 0.199,1.771 c 0.115,0 0.251,0.053 0.319,0.155 0.07,0.105 0.103,0.239 0.103,0.405 0,0.161 -0.013,0.319 -0.087,0.426 C 0.463,2.859 0.349,2.921 0.216,2.917 0.063,2.915 0.004,2.79 0.001,2.713 -0.003,2.576 -0.01,2.453 0.006,1.98 M 1.09,1.437 1.131,1.416 C 1.53,1.208 1.75,0.776 1.731,0.298 1.701,-0.424 1.347,-0.789 0.678,-0.906 0.482,-0.941 0.253,-0.937 0.04,-0.937 c -0.237,0 -0.537,0.008 -0.929,0.009 V 3.621 C -0.556,3.673 -0.27,3.682 0.017,3.682 0.416,3.682 0.83,3.6 1.101,3.426 1.361,3.259 1.445,3.081 1.517,2.804 1.53,2.733 1.547,2.619 1.547,2.497 1.547,1.954 1.377,1.653 1.09,1.437"
           style="fill:#ef651a;fill-opacity:1;fill-rule:nonzero;stroke:none"
           id="path13595" />
      </g>
      <g
         id="g13597"
         transform="matrix(0.35277777,0,0,-0.35277777,-42.498135,236.71731)">
        <path
           d="M 0,0 C 0.136,-0.002 0.376,-0.005 0.6,0.002 V -0.78 h -2.065 v 4.557 h 0.916 V 0.494 c 0,-0.219 0.005,-0.371 0.134,-0.439 C -0.357,0.021 -0.197,0 0,0"
           style="fill:#ef651a;fill-opacity:1;fill-rule:nonzero;stroke:none"
           id="path13599" />
      </g>
      <g
         id="g13601"
         transform="matrix(0.35277777,0,0,-0.35277777,-42.176049,235.38487)">
        <path
           d="M 0,0 C 0.767,-0.009 1.414,-0.018 2.016,-0.009 L 1.994,-0.857 c -0.17,0.01 -0.278,0.003 -0.466,0.003 -0.206,0 -0.418,0.002 -0.496,-0.032 -0.194,-0.085 -0.158,-0.263 -0.165,-0.469 -0.001,-0.206 0.026,-0.344 0.12,-0.414 0.065,-0.05 0.215,-0.069 0.364,-0.069 0.137,-0.003 0.338,-0.003 0.537,0 V -2.659 H 1.452 C 1.293,-2.654 1.082,-2.664 0.99,-2.756 0.88,-2.864 0.874,-2.909 0.867,-3.148 c -0.003,-0.243 -0.032,-0.425 0.1,-0.55 0.071,-0.067 0.249,-0.091 0.446,-0.088 0.264,0.004 0.547,0 0.688,0.006 v -0.777 c -0.889,0.009 -1.595,0.009 -2.101,0"
           style="fill:#ef651a;fill-opacity:1;fill-rule:nonzero;stroke:none"
           id="path13603" />
      </g>
      <g
         id="g13605"
         transform="matrix(0.35277777,0,0,-0.35277777,-44.955233,237.22601)">
        <path
           d="m 0,0 v -19.882 h -3.71 c 0,2.292 -10e-4,3.981 -10e-4,5.481 0,2.535 0.089,3.93 -0.095,4.145 -0.078,0.094 -0.279,-0.082 -0.435,-0.4 -0.08,-0.174 -0.323,-0.927 -0.77,-2.099 -0.336,-0.875 -0.749,-2.004 -1.343,-3.569 h -2.608 c -0.277,0.742 -0.486,1.376 -1.127,3.036 -0.481,1.245 -0.823,2.279 -0.928,2.53 -0.162,0.388 -0.266,0.499 -0.387,0.513 -0.206,0.028 -0.146,-0.811 -0.146,-2.048 0,-1.704 -0.036,-4.228 0.059,-7.598 h -3.858 L -15.351,0 h 4.266 c 0.342,-0.926 0.289,-0.876 1.336,-3.705 0.254,-0.755 1.477,-3.657 2.087,-5.251 0.385,0.823 0.786,1.845 1.424,3.387 0.502,1.407 1.281,3.259 2.01,5.569"
           style="fill:#ef651a;fill-opacity:1;fill-rule:nonzero;stroke:none"
           id="path13607" />
      </g>
      <g
         id="g13609"
         transform="matrix(0.35277777,0,0,-0.35277777,-44.621152,237.22601)">
        <path
           d="M 0,0 C 3.369,-0.009 6.466,-0.012 9.094,0.029 L 8.933,-3.417 c -0.743,0.041 -1.505,0.041 -2.289,0 C 5.77,-3.456 5.455,-3.56 5.126,-3.729 4.543,-4.019 4.303,-4.795 4.262,-5.676 4.237,-6.571 4.553,-7.17 4.964,-7.473 5.242,-7.684 5.73,-7.818 6.378,-7.818 c 0.598,-0.013 1.327,0.002 2.189,0.016 v -3.697 c -0.424,0 -1.023,0.03 -1.764,0.03 -0.692,0.026 -1.475,-0.013 -1.872,-0.41 -0.478,-0.464 -0.674,-1.009 -0.663,-2.013 0.03,-1.033 0.255,-1.728 0.8,-2.057 0.391,-0.225 0.457,-0.275 1.34,-0.321 0.702,-0.052 1.63,-0.023 2.872,0.016 v -3.652 c -4.015,0.042 -7.064,0.042 -9.267,0"
           style="fill:#ef651a;fill-opacity:1;fill-rule:nonzero;stroke:none"
           id="path13611" />
      </g>
    </g>
  </g>
</svg>
