<?xml version="1.0" encoding="UTF-8" standalone="no"?>
<!-- Created with Inkscape (http://www.inkscape.org/) -->

<svg
   xmlns:dc="http://purl.org/dc/elements/1.1/"
   xmlns:cc="http://creativecommons.org/ns#"
   xmlns:rdf="http://www.w3.org/1999/02/22-rdf-syntax-ns#"
   xmlns:svg="http://www.w3.org/2000/svg"
   xmlns="http://www.w3.org/2000/svg"
   version="1.1"
   width="300"
   height="135.70715"
   viewBox="0 0 300 135.70716"
   id="svg7578">
  <defs
     id="defs7580" />
  <metadata
     id="metadata7583">
    <rdf:RDF>
      <cc:Work
         rdf:about="">
        <dc:format>image/svg+xml</dc:format>
        <dc:type
           rdf:resource="http://purl.org/dc/dcmitype/StillImage" />
        <dc:title></dc:title>
      </cc:Work>
    </rdf:RDF>
  </metadata>
  <g
     transform="translate(-291.69977,-670.72685)"
     id="layer1">
    <g
       transform="matrix(1.014604,0,0,-1.014604,396.98306,676.16513)"
       id="g1486"
       style="fill:#000000">
      <path
         d="m 0,0 c -0.05,-0.185 -0.104,-0.359 -0.159,-0.521 -6.969,-23.46 0.855,-51.785 2.462,-55.695 l -13.02,0 c 1.208,3.645 2.742,12.751 2.146,28.922 l -11.554,-1.173 c 0.016,-0.429 0.033,-0.864 0.052,-1.306 0.118,-2.664 0.284,-5.056 0.485,-7.212 1.081,-16.257 5.452,-20.999 6.391,-21.946 l -13.948,0 c 0.259,0.539 0.483,1.203 0.595,2.008 0.614,3.991 1.308,10.19 1.463,19.64 0,0 0.101,4.398 0.068,6.293 -1.261,4.382 -4.084,4.411 -4.084,4.411 0,0 3.983,0.145 3.914,3.599 -0.028,1.325 -0.695,3.159 -0.371,4.425 0.145,0.568 0.989,1.072 1.01,1.632 0.019,0.475 -0.75,1.068 -0.939,1.584 -0.727,1.982 -0.376,4.508 -0.734,6.577 -0.558,3.235 -1.394,6.642 -3.455,9.547 l 13.373,0 c -1.401,-2.018 -4.249,-8.348 -3.904,-26.233 l 11.546,1.173 C -9.743,2.912 -11.867,5.346 -11.867,5.346 L 2.303,5.36 C 1.78,4.563 1.24,3.572 0.76,2.354 0.49,1.564 0.238,0.781 0,0 m 56.505,-20.464 c 0,0 2.921,1.542 2.064,6.256 -0.747,4.113 -3.073,6.343 -5.691,6.255 -1.718,-0.057 -2.706,-1.673 -2.859,-3.964 -0.151,-2.291 -0.704,-15.375 -0.101,-28.987 0.466,-10.475 3.458,-13.251 4.814,-13.977 l -16.24,0 c 0.896,0.422 1.885,1.098 2.608,2.182 0.272,0.49 0.532,1.043 0.768,1.666 0.062,0.204 0.127,0.385 0.194,0.542 0.429,1.273 0.763,2.811 0.926,4.682 0.611,7.068 -0.494,18.297 -0.344,29.53 0.152,11.233 -6.15,7.86 -6.885,7.313 -2.932,-2.181 -2.268,-7.797 -0.857,-9.295 0,0 -1.965,0 -3.274,1.894 -0.389,0.562 -3.217,5.895 0.758,11.708 l 28.345,0 c 0.668,-1.407 1.341,-3.474 1.566,-6.334 0.453,-5.771 -2.519,-8.59 -5.792,-9.471 m 30.421,1.654 c 0,0 2.736,3.177 1.472,6.192 -1.262,3.016 -3.925,4.524 -7.641,4.147 -3.717,-0.377 -5.119,-3.715 -5.259,-8.293 -0.083,-2.695 -0.117,-5.43 -0.126,-9.483 6.96,-0.169 7.418,6.901 7.418,6.901 2.736,-8.239 0.35,-16.75 0.35,-16.75 0,0 -0.845,6.586 -7.77,7.141 10e-4,-2.284 0.006,-4.946 0.014,-8.143 0.005,-2.146 -0.45,-13.772 5.678,-13.772 7.694,0 8.459,9.712 5.226,13.288 0,0 6.459,-0.345 5.655,-8.745 -0.333,-3.481 -1.325,-5.648 -2.179,-6.915 l -25.553,0 c 1.338,0.673 3.38,2.035 4.369,4.406 0.138,0.389 0.269,0.804 0.395,1.246 0.07,0.314 0.137,0.57 0.203,0.778 0.75,3.085 1.141,7.423 0.685,13.486 -0.77,5.968 -4.151,6.003 -4.151,6.003 0,0 2.706,0.1 3.427,2.143 -0.755,8.592 -1.414,13.833 -6.038,18.932 l 28.42,0 c 0.602,-1.187 1.038,-2.783 1.016,-4.915 -0.071,-6.624 -5.611,-7.647 -5.611,-7.647 m 32.692,-36.964 -25.335,0 c 1.848,1.892 4.441,6.615 3.959,18.06 l -0.062,0.013 c -0.002,0.082 -0.089,6.073 -0.091,6.154 -0.289,10.93 0.77,21.404 -3.776,27.667 l 15.253,0 c -1.019,-0.681 -2.62,-2.163 -3.664,-5.152 -0.911,-2.609 -1.196,-5.446 -1.52,-8.129 -0.245,-2.04 -0.415,-4.085 -0.54,-6.132 -0.047,-0.776 0.322,-2.577 -0.145,-3.232 -0.432,-0.606 -1.969,-0.69 -2.148,-1.339 -0.249,-0.903 1.807,-1.236 2.529,-1.278 -1.513,-1.971 -0.511,-5.12 -0.474,-7.383 0,0 0.021,-1.777 0.023,-2.738 0.005,-2.206 -0.45,-14.157 5.678,-14.157 7.694,0 8.459,9.985 5.226,13.66 0,0 6.952,-0.293 7.028,-8.952 0.029,-3.388 -0.924,-5.631 -1.941,-7.062 m -139.832,-69.643 c -1.58,-1.686 -3.973,-2.529 -6.048,-2.789 -10.116,-1.265 -15.448,4.048 -18.992,10.284 -4.52,7.953 -7.578,16.379 -11.581,24.49 -0.397,0 7.885,1.538 8.117,15.187 0.239,14.079 -6.843,13.771 -6.843,13.771 0,0 -2.705,-14.326 -1.91,-29.942 0.796,-15.615 2.627,-21.615 2.627,-21.615 0,0 -0.139,-0.008 -0.39,-0.029 l -12.126,0 c 0.748,0.956 1.542,2.425 2.141,4.676 0.228,1.079 0.459,2.289 0.682,3.644 0.055,0.452 0.118,0.843 0.187,1.184 0.299,1.473 0.153,2.987 0.258,4.472 0.113,1.611 0.737,3.097 0.826,4.685 1.85,-0.179 -0.096,1.32 -0.347,1.68 0.101,-0.144 0.313,1.527 0.313,1.635 -0.001,0.764 0.244,1.533 0.274,2.298 0.096,2.484 0.136,4.968 0.132,7.454 -0.014,9.221 1.185,20.288 -3.668,23.116 0.113,-0.067 1.132,0.193 1.312,0.217 4.27,0.569 8.907,0.076 12.823,-1.348 2.277,-0.827 4.335,-2.006 5.963,-3.493 0.852,-0.78 4.527,-4.732 3.317,-5.572 0.091,-0.246 0.296,-0.514 0.585,-0.654 -0.356,-0.367 -0.996,-0.633 -1.596,-0.675 -0.067,-0.138 -0.086,-0.405 -0.025,-0.558 0.614,0.071 1.903,-0.229 2.147,-0.674 0.302,-0.554 0.013,-1.499 0.046,-2.116 0.042,-0.79 0.037,-1.573 -0.024,-2.365 -0.683,-8.924 -5.689,-13.346 -9.513,-14.739 0.061,0.022 6.659,-10.998 7.037,-11.638 2.275,-3.848 4.513,-7.707 6.697,-11.586 0.472,-0.838 0.989,-1.701 1.578,-2.538 1.714,-2.433 4.04,-4.646 7.663,-5.418 1.738,-0.371 4.423,-0.11 5.963,0.568 1.894,0.837 2.141,1.709 2.272,3.338 1.854,-0.927 1.279,-3.695 0.103,-4.95 m 197.269,34.254 c -2.337,11.585 -3.347,16.177 -3.762,17.953 -0.622,-4.651 -1.719,-13.257 -2.62,-22.041 l 7.021,0.69 c -0.189,1.083 -0.404,2.212 -0.639,3.398 m 1.663,-24.346 c 0.313,1.58 0.94,7.766 -0.463,17.443 l -7.938,-0.779 c -0.172,-1.824 -0.33,-3.631 -0.472,-5.391 -1.034,-12.881 2.951,-15.968 4.289,-16.637 l -13.906,0 c 0.873,1.733 3.123,6.837 4.957,16.511 0.805,6.577 -3.202,6.984 -3.202,6.984 0,0 4.29,0.171 4.785,3.373 l 0.033,-0.055 c 1.445,9.694 2.817,17.807 3.087,22.783 0.369,6.34 -5.082,7.221 -5.082,7.221 l 0.056,0.109 16.271,0 c -0.3,0 -0.408,-6.454 -0.408,-6.856 -0.003,-1.98 0.232,-3.965 0.21,-5.943 -0.013,-0.963 0.135,-1.119 -0.562,-1.788 -0.433,-0.419 -1.679,0.09 -1.758,-0.789 -0.115,-1.321 2.196,-1.144 3.192,-0.853 0.346,-1.769 -0.129,-3.719 0.157,-5.577 0.374,-2.385 0.82,-4.763 1.33,-7.134 3.195,-14.809 7.034,-21.119 8.62,-22.622 l -13.196,0 z M 111.89,-89.75 c -2.171,11.015 -3.112,15.382 -3.499,17.069 -0.576,-4.421 -1.599,-12.605 -2.435,-20.956 l 6.53,0.656 c -0.176,1.029 -0.374,2.105 -0.596,3.231 m 1.548,-21.878 c 0.292,1.503 0.875,6.117 -0.428,15.314 l -7.385,-0.74 c -0.158,-1.735 -0.309,-3.453 -0.439,-5.126 -1.148,-14.653 4.384,-15.977 4.384,-15.977 l -13.674,-0.498 c 0,0 2.789,4.679 4.956,16.356 0.748,6.253 -2.977,6.641 -2.977,6.641 0,0 3.989,0.162 4.45,3.207 l 0.03,-0.052 c 1.345,9.216 2.62,16.929 2.87,21.66 0.346,6.029 -4.725,6.865 -4.725,6.865 l 0.052,0.105 15.131,0 c -0.36,-2.664 -1.22,-12.193 2.013,-27.516 2.971,-14.08 6.541,-18.811 8.017,-20.239 l -12.275,0 z m 37.341,47.672 c -0.892,-0.221 -3.308,-1.024 -4.565,-3.445 -0.263,-0.674 -0.506,-1.452 -0.713,-2.349 -0.058,-0.45 -0.131,-0.789 -0.215,-1.036 -0.325,-1.797 -0.514,-4.012 -0.475,-6.738 0.196,-13.337 0.415,-40.21 0.415,-40.21 l -15.152,36.121 0,-22.651 c 0,-4.682 2.177,-6.713 3.493,-7.513 l -10.559,0 c 0.244,0.414 0.478,0.863 0.68,1.364 0.165,0.489 0.332,1.015 0.496,1.584 0.072,0.313 0.144,0.57 0.215,0.78 1.145,4.306 2.08,10.714 1.826,19.936 -0.516,18.798 -4.763,23.1 -7.302,24.266 l 12.226,0 9.925,-24.803 c 0,0 -0.175,11.929 0.021,17.358 0.132,3.695 -1.593,6.147 -2.707,7.336 l 12.391,0 z m -177.72,-26.34 c -2.171,11.015 -3.11,15.381 -3.498,17.068 -0.575,-4.421 -1.599,-12.604 -2.434,-20.955 l 6.529,0.656 c -0.177,1.029 -0.374,2.105 -0.597,3.231 m 1.551,-21.88 c 0.291,1.503 0.873,6.116 -0.43,15.315 l -7.384,-0.74 c -0.16,-1.733 -0.309,-3.453 -0.44,-5.126 -1.149,-14.654 4.384,-15.978 4.384,-15.978 l -13.675,-0.496 c 0,0 2.791,4.679 4.957,16.354 0.748,6.254 -2.978,6.642 -2.978,6.642 0,0 3.989,0.162 4.45,3.206 l 0.03,-0.052 c 1.345,9.218 2.621,16.929 2.87,21.662 0.347,6.027 -4.724,6.864 -4.724,6.864 l 0.052,0.105 15.13,0 c -0.359,-2.664 -1.219,-12.192 2.015,-27.515 2.971,-14.08 6.54,-18.812 8.015,-20.241 l -12.272,0 z m 36.686,47.673 c -0.868,-0.22 -3.218,-1.024 -4.44,-3.446 -0.256,-0.672 -0.493,-1.45 -0.695,-2.347 -0.056,-0.452 -0.127,-0.79 -0.208,-1.037 -0.317,-1.797 -0.501,-4.011 -0.462,-6.739 0.191,-13.336 0.403,-40.21 0.403,-40.21 l -14.74,36.121 0,-22.651 c 0,-4.681 2.118,-6.712 3.397,-7.512 l -10.271,0 c 0.239,0.414 0.464,0.864 0.66,1.363 0.164,0.49 0.325,1.017 0.485,1.586 0.07,0.312 0.14,0.571 0.209,0.779 1.113,4.305 2.025,10.715 1.777,19.936 -0.504,18.799 -4.635,23.1 -7.105,24.268 l 11.895,0 9.654,-24.805 c 0,0 -0.17,11.929 0.021,17.357 0.128,3.696 -1.55,6.148 -2.636,7.337 l 12.056,0 z m 44.053,-3.186 c -0.019,-0.036 -0.039,-0.072 -0.058,-0.108 -0.022,-0.042 -0.044,-0.083 -0.066,-0.126 -0.022,-0.044 -0.046,-0.088 -0.07,-0.133 -0.027,-0.054 -0.054,-0.106 -0.082,-0.157 -1.362,-2.626 -3.143,-6.351 -5.379,-11.581 -2.261,-5.289 -3.537,-8.286 -4.239,-9.933 -0.024,-7.095 -0.011,-13.761 0.091,-15.972 0.388,-8.398 2.658,-11.292 4.044,-12.282 l -13.707,0 c 0.553,0.29 1.123,0.707 1.595,1.318 0.258,0.404 0.507,0.863 0.739,1.384 0.089,0.247 0.168,0.434 0.239,0.57 0.469,1.213 0.839,2.722 1.008,4.601 0.201,2.223 0.084,11.554 -0.063,20.306 -1.296,3.116 -3.958,9.638 -5.493,14.23 -2.002,5.996 -4.99,8.905 -7.792,9.826 l 1,0 c 1.828,-0.107 3.665,-0.084 5.335,0 l 6.54,0 c -1.256,-5.687 4.632,-20.751 4.632,-20.751 0,0 2.95,8.178 4.25,14.878 0.995,5.129 -1.548,8.45 -2.153,9.153 l 14.922,0 0.059,-0.281 c 0,0 -3.508,-1.593 -5.352,-4.942 m 23.843,-47.563 -24.501,0 c 0.849,0.311 2.012,1.03 2.845,2.695 0.155,0.338 0.305,0.702 0.45,1.097 0.036,0.104 0.069,0.201 0.104,0.291 0.959,2.764 1.646,6.945 1.387,13.247 l -0.058,0.014 c -10e-4,0.078 -0.084,5.837 -0.086,5.915 -0.259,10.118 0.648,19.828 -3.089,25.908 l 13.632,0 0.01,-0.019 c 0,0 -2.498,-1.664 -3.653,-5.916 -0.141,-0.63 -0.279,-1.316 -0.412,-2.056 -0.044,-0.32 -0.09,-0.584 -0.138,-0.801 -0.786,-4.767 -1.348,-11.742 -1.188,-21.901 0,0 0.021,-1.708 0.022,-2.629 0.005,-2.123 -0.421,-13.609 5.313,-13.609 7.201,0 7.917,9.596 4.893,13.129 0,0 5.947,-0.27 6.019,-8.592 0.027,-3.239 -0.734,-5.395 -1.55,-6.773 m 11.909,55.247 13.115,0 c -0.602,-0.419 -1.299,-1.072 -1.885,-2.075 -0.193,-0.375 -0.39,-0.787 -0.592,-1.24 -0.055,-0.149 -0.113,-0.278 -0.169,-0.396 -1.118,-2.637 -2.328,-6.567 -3.373,-12.408 -2.886,-16.126 -10.101,-46.371 -10.101,-46.371 -2.944,12.522 -5.895,25.046 -8.915,37.557 -10e-4,0.004 -0.002,0.008 -0.002,0.01 -0.278,1.15 -0.697,2.274 -1.049,3.411 -0.146,0.466 -0.6,1.265 -0.509,1.736 0.089,0.459 0.626,0.497 0.729,0.878 0.134,0.5 0.668,1.313 0.344,1.851 -0.357,0.595 -1.116,0.37 -1.553,0.837 -0.522,0.561 -0.567,1.345 -0.773,2.021 -0.559,1.833 -1.27,3.652 -2.081,5.427 -0.763,1.673 -1.668,4.17 -3.444,5.522 l 14.839,0 c -3.73,-10.214 4.003,-36.744 4.003,-36.744 0,0 4.093,22.082 4.139,30.776 0.037,7.273 -2.042,8.878 -2.723,9.208 m 71.897,-5.371 c -0.564,-0.507 -1.356,-1.374 -1.994,-2.695 -0.163,-0.381 -0.32,-0.761 -0.47,-1.141 -0.031,-0.088 -0.063,-0.171 -0.095,-0.243 -3.215,-8.352 -3.049,-16.239 -3.013,-22.687 0.084,-15.441 3.696,-19.998 4.538,-20.851 l -11.982,0 c 0.221,0.466 0.413,1.04 0.509,1.736 0.597,3.907 1.288,10.59 1.288,20.616 0,17.716 0.064,21.391 -2.639,25.265 l 13.858,0 z M 23.21,-79.279 c 3.565,2.712 2.861,7.774 0.779,10.79 -2.092,3.03 -6.418,3.15 -7.891,-2.078 -1.475,-5.227 5.374,-14.005 6.937,-16.753 0.646,-1.138 2.284,-2.426 2.589,-3.607 0.407,-1.57 -2.286,-1.398 -2.012,-2.516 0.34,-1.385 2.862,0.057 3.586,0.304 1.553,-3.941 3.635,-7.367 3.644,-11.674 0.02,-10.052 -6.766,-13.336 -12.231,-13.336 -5.463,0 -9.973,3.551 -9.539,9.902 0.432,6.35 7.372,6.785 7.372,6.785 0,0 -2.689,-0.268 -3.122,-5.428 -0.434,-5.16 2.688,-7.171 3.643,-7.372 0.953,-0.2 5.289,-0.468 6.417,4.892 1.127,5.361 -1.734,9.316 -8.934,20.631 -7.198,11.316 -5.405,19.847 1.302,23.936 4.099,2.498 10.71,3.93 10.71,3.93 0,0 3.254,-5.673 3.254,-9.627 0,-3.953 -1.214,-8.11 -6.504,-8.779 m -95.266,6.421 c 0,0 3.117,2.071 2.203,6.783 -0.797,4.112 -4.264,6.025 -7.058,5.502 -1.832,-0.344 -2.886,-2.171 -3.048,-4.555 -0.087,-1.278 -0.386,-36.591 -0.108,-42.652 0.645,-14.015 5.842,-14.648 5.842,-14.648 0,0 -14.245,-0.605 -18.884,-1.195 0,0 5.261,1.326 6.11,10.793 0.485,5.393 0.109,10.887 0.035,16.285 -0.051,3.824 -0.116,7.645 -0.184,11.468 -0.03,1.752 -0.062,3.505 -0.093,5.256 -0.012,0.674 -0.321,1.81 -0.027,2.442 0.095,0.207 1.89,1.352 1.515,1.542 -2.121,1.071 -1.634,3.484 -1.611,5.174 0.161,11.593 -8.533,7.077 -9.317,6.392 -3.126,-2.728 -0.944,-11.119 0.561,-12.428 0,0 -3.981,0.907 -5.613,3.781 -0.352,0.621 -5.258,7.098 1.566,14.911 14.347,-2.318 30.905,4.363 30.905,4.363 0,0 2.856,-2.087 3.385,-8.504 0.484,-5.868 -2.687,-9.261 -6.179,-10.71 m 95.211,43.461 c -1.099,12.529 -4.998,22.533 -8.709,22.34 -3.709,-0.192 -5.827,-10.505 -4.729,-23.036 0.205,-2.321 1.648,-5.05 0.711,-7.353 -0.376,-0.925 -1.659,-1.625 -1.669,-2.602 -0.01,-1.136 1.449,-1.691 2.235,-2.431 1.917,-1.796 3.095,-10.179 7.433,-9.953 3.71,0.191 5.828,10.505 4.728,23.035 M 16.436,-54.83 c -7.859,0 -14.231,11.232 -14.231,25.085 0,13.855 6.372,25.086 14.231,25.086 7.86,0 14.232,-11.231 14.232,-25.086 0,-13.853 -6.372,-25.085 -14.232,-25.085"
         id="path1488"
         style="fill:#000000;fill-opacity:1;fill-rule:nonzero;stroke:none" />
    </g>
  </g>
</svg>
